<svg width="79" height="75" viewBox="0 0 79 75" fill="none" xmlns="http://www.w3.org/2000/svg">
<path d="M3 15.9024V8.73438C3 5.56737 5.56737 3 8.73438 3H70.379C73.546 3 76.1134 5.56737 76.1134 8.73438V48.8751C76.1134 52.0421 73.546 54.6094 70.379 54.6094H60.3438L63.6976 70.2603C63.9907 71.6282 62.3514 72.563 61.3234 71.6141L46.0079 57.4766H8.73438C5.56737 57.4766 3 54.9093 3 51.7422V48.8751" stroke="url(#paint0_linear)" stroke-width="4.30079"/>
<path d="M28.0019 24.848L24.934 40.2735H20.6905L20.9772 38.7539C19.6966 39.9199 18.1196 40.5029 16.2464 40.5029C15.0421 40.5029 13.9335 40.2257 12.9204 39.6714C11.9073 39.1171 11.095 38.3238 10.4833 37.2916C9.89076 36.2403 9.59448 35.0074 9.59448 33.593C9.59448 31.8918 9.96722 30.3626 10.7127 29.0055C11.4773 27.6292 12.5095 26.5588 13.8093 25.7942C15.109 25.0105 16.5426 24.6187 18.11 24.6187C20.4803 24.6187 22.1528 25.3928 23.1276 26.9411L23.529 24.848H28.0019ZM17.6226 36.8042C18.5019 36.8042 19.2856 36.594 19.9737 36.1734C20.6618 35.7338 21.1971 35.1317 21.5793 34.3671C21.9616 33.6025 22.1528 32.7233 22.1528 31.7293C22.1528 30.678 21.8374 29.8465 21.2066 29.2348C20.5949 28.6232 19.7348 28.3173 18.6261 28.3173C17.7469 28.3173 16.9632 28.5372 16.275 28.9768C15.5869 29.3973 15.0517 29.9899 14.6694 30.7544C14.2871 31.519 14.096 32.3983 14.096 33.3923C14.096 34.4436 14.4018 35.2751 15.0135 35.8867C15.6443 36.4984 16.514 36.8042 17.6226 36.8042Z" fill="url(#paint1_linear)"/>
<path d="M33.5478 40.5029C32.2098 40.5029 30.9387 40.3595 29.7345 40.0728C28.5494 39.767 27.6223 39.3751 26.9533 38.8973L28.6736 35.6573C29.3426 36.097 30.155 36.4506 31.1107 36.7182C32.0856 36.9858 33.0604 37.1196 34.0353 37.1196C35.0483 37.1196 35.8034 36.9954 36.3004 36.7469C36.7973 36.4793 37.0458 36.1065 37.0458 35.6287C37.0458 35.2464 36.826 34.9692 36.3864 34.7972C35.9467 34.6252 35.2395 34.4436 34.2646 34.2524C33.156 34.0422 32.2385 33.8128 31.5121 33.5643C30.8049 33.3158 30.1837 32.9144 29.6485 32.3601C29.1324 31.7866 28.8743 31.0125 28.8743 30.0376C28.8743 28.3364 29.5816 27.008 30.996 26.0523C32.4296 25.0965 34.3029 24.6187 36.6157 24.6187C37.6862 24.6187 38.7279 24.7333 39.741 24.9627C40.7541 25.1921 41.6142 25.5075 42.3215 25.9089L40.7158 29.1775C39.4543 28.3938 37.9347 28.0019 36.157 28.0019C35.1821 28.0019 34.4367 28.1453 33.9206 28.432C33.4236 28.7187 33.1751 29.0819 33.1751 29.5216C33.1751 29.923 33.3949 30.2192 33.8346 30.4104C34.2742 30.5824 35.0101 30.7736 36.0423 30.9838C37.1318 31.1941 38.0207 31.4235 38.7088 31.6719C39.416 31.9013 40.0277 32.2932 40.5438 32.8475C41.0599 33.4018 41.3179 34.1568 41.3179 35.1126C41.3179 36.8329 40.5916 38.1614 39.1389 39.098C37.7053 40.0346 35.8416 40.5029 33.5478 40.5029Z" fill="url(#paint2_linear)"/>
<path d="M53.5107 31.5573L58.815 40.2735H53.6254L49.9553 34.2811L47.2315 36.5462L46.486 40.2735H42.0132L46.2567 18.999H50.7295L48.3497 30.8978L55.7471 24.848H61.5675L53.5107 31.5573Z" fill="url(#paint3_linear)"/>
<defs>
<linearGradient id="paint0_linear" x1="3" y1="3" x2="63.211" y2="77.547" gradientUnits="userSpaceOnUse">
<stop stop-color="#485BFF"/>
<stop offset="1" stop-color="#FF59F8"/>
</linearGradient>
<linearGradient id="paint1_linear" x1="9.59448" y1="18.999" x2="21.6736" y2="53.1105" gradientUnits="userSpaceOnUse">
<stop stop-color="#485BFF"/>
<stop offset="1" stop-color="#FF59F8"/>
</linearGradient>
<linearGradient id="paint2_linear" x1="9.59448" y1="18.999" x2="21.6736" y2="53.1105" gradientUnits="userSpaceOnUse">
<stop stop-color="#485BFF"/>
<stop offset="1" stop-color="#FF59F8"/>
</linearGradient>
<linearGradient id="paint3_linear" x1="9.59448" y1="18.999" x2="21.6736" y2="53.1105" gradientUnits="userSpaceOnUse">
<stop stop-color="#485BFF"/>
<stop offset="1" stop-color="#FF59F8"/>
</linearGradient>
</defs>
</svg>
